/* XPM */
static char *rsz_doc_icon[] = {
/* columns rows colors chars-per-pixel */
"130 80 46 1 ",
"  c #2F94CF",
". c #3799D1",
"X c #3D9CD2",
"o c #439FD3",
"O c #46A0D4",
"+ c #4BA3D5",
"@ c #53A7D7",
"# c #55A8D7",
"$ c #56A8D8",
"% c #5BABD9",
"& c #61AEDA",
"* c #66B1DB",
"= c #6AB3DD",
"- c #72B6DE",
"; c #75B9DF",
": c #78BADF",
"> c #77BAE0",
", c #7BBBE0",
"< c #81BFE2",
"1 c #84C0E2",
"2 c #8CC4E4",
"3 c #91C7E6",
"4 c #94C8E6",
"5 c #99CBE7",
"6 c #9CCDE8",
"7 c #A1CFE9",
"8 c #A5D1EA",
"9 c #AAD3EB",
"0 c #B1D7ED",
"q c #B4D9EE",
"w c #BADCEF",
"e c #BEDEF0",
"r c #C1DFF0",
"t c #C3E0F1",
"y c #CCE5F3",
"u c #D1E7F4",
"i c #D3E9F5",
"p c #DBECF7",
"a c #DFEFF8",
"s c #E0EFF8",
"d c #E4F1F9",
"f c #ECF5FB",
"g c #F0F7FC",
"h c #F4FAFD",
"j c #FEFFFF",
"k c None",
/* pixels */
"kkkk@@@@@@@@@@@@@@@@@@@@@@@@@@@@@@@@@@@@@@@@@@@@@@@@@@@@@@@@#@###@@@#@@#@@@@@@@@@@@@@@@@@@@@@@@@@@@@@@@@@@@@@@@@@@@@@@@@@@@@@@kkkk",
"kk@@@@@@@@@@@@@@@@@@@@@@@@@@@@@@@@@@@@@@#@@@@@@@$@@@$$$@#################@$@@@@@@@@@@@@@@@@@@@@@@@@@@@@@@@@@@@@@@@@@@@@@@@@@@@@@kk",
"k@@@@@@@@#@@@@@@@@@@@@@@@@@@@@@@@@@@@@@@@@@@@@OO+++@+O++++++++O+O+O++++OOOO@@@@@@@@@@@@@@@@@@@@@@@@@@@@@@#@@@@@@@@@@@@@@@@@@@@@@@k",
"k@@@@@@@@@@@@@@@@@@@@@@@@@@@@@@@@@@@@@@@@@@#@*9rrrrrttttttrrrrtttttttttrte1+$@@@@@@@@@@@@@@@@@@@@@@@@@@@@@@@@@@@@@@@@@@@@@@@@@@@@@",
"@@@@@@@@@@@@@@@@@@@@@@@@@@@@@@#@@@@@@@@@@@@@&djjjjjjjjjjjjjjjjjjjjjjjjjjjjj7O$@@@@@@@@@@@@@@@@@@@@@@@@@@@@@@@@@@@@@@@@@@@@@@@@@#@@",
"@@@@@@@@@@@@@@@@@@@@@@@@@@@@@@@@@@@@@@@@@@$+3jjjjjjjjjjjjjjjjjjjjjjjjjjjjjjj9O#$@@@@@@@@@@@@@@#@@@@@@@@@@@@@@@@@@@@@@@@@@@@@@@@@@@",
"@@@@@@@@@@@@@@@@@@@@@@@@@@@@@@@@@@@@@@@@@@$O3jjjjjjjjjjjjjjjjjjjjjjjjjjjjjjjj9O##@@@@@@@@@@@@@@@@@@@@@@@@@@@@@@@@@@@@@@@@@@@@@@@@@",
"@@@@@@@@@@@@@@@@@@@@#@@@@@@@@@@@@@#@@@@@@@#O3jjjjjjjjjjjjjjjjjjjjjjjjjjjjjjjjj9+@#@@@@@@@@@@@@@@@@@@@@#@@@@@@@@@@@@@#@@@@@@@@@@@@@",
"@@@@@@@@@@@@@@@@@@@@@@@@@@@@@@@@@@@@@@@@@@$O3jjjjd;;-;-;---;----;;--;=9jjjjjjjjq+##@@@@@@@@@@@@@@@@@@@@@@@@@@@@@@@@@@@@@@@@@@@@@@@",
"@@@@@@@@@@@@@@@@@@@@@@@@@@@@@@@@@@@@@@@@@#$O4jjjjsOO@++++++++++++++++o2jjjjjjjjjwO@#@@@@@@@@@@@@@@@@@@@@@@@@@@@@@@@@@@@@@@@@@@@@@@",
"@@@@@@@@@@@#@@@@@@@@@@@@@@@@@@@@@@@@@@@@@@#O4jjjjd@$@@@@########@@##$+3jjjjjjjjjjw+@#@@@@@@@@@@@@@@@@@@@@@@@@@@@@@#@@@@@@@@@@@@@@@",
"@@@@@@@@@@@#@@@@@@@#@@@@@@@@@@@@@@@@@@@@@@#O4jjjjs@@@@@@#@##@#@@@@###O4jjjw0jjjjjjr+@@@@@@@@@@@@@@@@@@@@@@@@@@@@@@@@@@@@@@@@@@@@@@",
"@@@@@@@@@@@@@@@@@@@@@@@@@@@@@@@@@@@@@@@@@@#O3jjjjs@@@@@@@@@@@@@@@@@@#O5jjjworjjjjjjt@@@@@@@@@@@@@@@@@@@@@@@@@@@@@@@@@@@@@@@@@@#@@@",
"@@@@@@@@@@@@@@@@@@@@@@@@@@@@@#@@@@@@@@@@@@$O3jjjjd@@@@@@@@@@@@@@@@@@#+5jjjwoOqjjjjjjr@@@@@@@@@@@@@@@@@@@@@@@@@@@@@@@@@@@@@@@@@@@@@",
"@@@@@@@@@@@@@@#@@@@@@@@@@@@@@@@@@@@@@@@@@@$+3jjjjd@@@@@@@@@@@@@@@@@@#O3jjjgyuujjjjjjj0O#@@@@@@@@@@@@@@@@@@@@@@#@@@@@@@@@@@@@@@@@@@",
"@@@@@@@@@@@@@@@@@@@@@@@@@@@@@@@@@@@@@@@@@@$O3jjjjs+@@@@@@@@@@@@@@@@@#O3jhjjjjjjjjjjjji@$@@@@@@@@@@@@@@@#@@@@@@@@@@@@@@@@@@@@@@@@@@",
"@@@@@@@#@@@@@@@@@@@@@@@@@@@@@@@@@@@@@@@@@@$O4jjjjd+@@@@@@@@@@@@@@@@@$o5jjjjjjjjjjjjjju+@@@@@@@@@@@@@@@@@@@@@@@@@@@@@@@@@@@@@@@@@@@",
"@@@@@@@@@@@@@@#@@@@@@@@@@@@@@@@@@@@@@@@@@@@+4jjjjd@@@@@@@@@@@@@@@@@@$@-adffddfdfgjjjju@@@@@@@@@@@@@@@@@@@@@@@@@@@@@@@@@@@@@@@@@@@@",
"@@@@@@@@@@@@@@@@@@@@@@@@@@@@@#@@@@@@@@@@@@#+4jjjjd@@@@@@@@@@@@@@@@@@@@+@$$%$$$%+9jjhju+@@@@@@@@@@@@@@@@@@@@@@@@@@@@@@@@@@@@@@@@@@@",
"@@@@@@@@@@@@@@@@@@@@@@@@@@@@@@@@@@@@@@@#@@$o3jjjjd@@@@@@@@@@@@@@@@@@@@@@@@@@#@#o8jjjju@@@@@@@@@@@@@@@@@@@@@@@@@@@@@@@@@@@@@@#@@@@@",
"@@@@@@@@@@@@@@@@@@@#@@@@@@@@@@@@@@@@@@@@@@$+3jjjjs+@@@@@@@@@@@@@##@@@@@@$@$@##$o8jjjju+@@@@@@@@@@@@@@@@@@@@@@@@@@@@@@#@@@@@@@@@@@@",
"@@@@@@@@@@@@@@@@@@@@@@@@@@@@@@@@@@@@@@@@@@@+3jjjjd@@O@@++@++++@+++++@++@++@+++@O8jjjju@@@@@@@@@@@$@@@@@@@@@@@@@@@@@@@@@@@@@@@@@@@@",
"@@@@@@@@@@@@@@@@@@@@@@@@@@@@@@@@@@@@#@@@@@$o3jjjjd@@qiuiiiiiiiuuiiiiiiiiuiiuiy;o8jhjju+@@@@@@@@@@@@@@@@@@@@@@@@@@@@@@@@@@@@@@@@@@@",
"@@@@@@@@@@@@@@@@@@@@@@@@@@@@@@@@@@@@@@@@@@$+3jjjjdO;jjjjjjjjjjjjjjjjjjjjjjjjjjw.9jjjju@@@@@@@@@@@@@@@@@@@@@@@@@@@@@@@@@@@@@@@@@@@@",
"@@@@@@#@@@@@@@@@@@@@#@@@@@@@@@@@@@@@@@@@##$O4jjjjdO;jjjjjjjjhjjjjjjjjjjjjjjhhjq.8jjjju+@@@@@@@@@@@@@@@@@@$@@@@@@@@@@@@@@@@@@@@@@@@",
"@@@@@@@@@@@@@@@@@@@@@@@@@@@@@@@@@@@@@@@@##$O4jjjjdO;jjjjjjjjjjjjjjjjjjjjjjjjjje.9jjjju@@@@@@@@@@@@@@@@@@@@@@@@@@@@@@@@@@@@@@@@@@@@",
"@@@@@@@@@@@@@@@@@@@@@@@@@@@@@@@@@@@@@@@@@@#O4jjjjd+&ydsssddsdsssddddddddgggggf2X8jjjju@@@@@@@@@@@@@@@@@@@@@@@@@@@@@@#@@@@@@@@#@@@@",
"@@@@@@@@@@@@@@@@@@@@@@@@@@@@@#@@@@@@@@@@@@#o4jjjjd@O<9899899999989888989;%&%*%+O8jhjju+@@@@@@@@@@@@@@@@@@@@@@@@@@@@@@@@@@@@@@@@@@@",
"@@@@@@@@@@@@@@@@@@@@@@@@@@@@@@@@@@@@@@@@@@#O3jjjjd+=jjjjjjjjjjjjjjjjjjjja@+@@+%O8jjjjy+@@@@@@@@@@@@@@@@@#@@@@@@@@@@@@@@@@@@@@@@@@@",
"@@@@@@@@@#@@@@@@@@@@@@@@@@@@@@@@@@@#@@@@@@#O4jjjjdO;jjjjjjjjjjjjjjjjjjjjg%@$@@$O8jjjjy@$@@@@@@@@@@@@@@@@@@@@@@@@@@@@@@@@@@@@@@@@@@",
"@@@@@@@@@@@@@@@@@@@@@@@@@@@@@@@@@@@@@@@@###O4jjjjdO>jjjjjjjjjjjjjjjjjjjjg%@@@@%O8jjjju+@@@@@@@@@@@@@@@@@@@@@@@@@@@@@@@@@@@@@@@@@@@",
"@@@@@@@@@@@@@@@@@@@@@@@@@@@@@@@@@@@@@@@@##$O4jjjjdO=jjjjjjjjjjjjjjjjjjjjp@+@@@@O8jjjji+@@@@@@@@@@@@@@@@@@@@@@@@@@@@@@@@@@@@@@@@@@@",
"@@@@@@@@@@@@#@@@@@@@@@@@@@@@@@@@@$$#@@@@@@$O4jjjjs@+;7555655655656556555;%*$@@$O7jjjju@@@@@@@@@@@@@@@@@@@@@@@@@@@@@@@@@@@@@@@@@@@@",
"@@@@@@@@@@@@@@@@@@@@@@@@@@+#@@@@#+$+@@@@@@$O4jjjjd+&uddsdddddddddddsddddgggs=@$O7jjjju+@@@@@@@@@@@@@@@@@@@@@@@@@@@@@@@@@@@@@@@@@@@",
"@@@@@@@@@@@@@@@@$#@@@@@@@@$$@@@#@@$##@#@$#$O3jjjjdO;jjjjjjjjjjjjjjjjjjjjjjjj3+$O8jjjju@@@@@@@@@@@@@@@@@@@@@@@@@@@@@@@@@@@@@@@@@@@@",
"@@@@@@@@@@@@@@@@$+#@@@@@@@@#@@@$@@@@#$+@+$$O3jjjjdO;jjjjjhjjjhjjjjjjjjjjjjjj2+$O8jjjju+@@@@@@@@@@@@@#@@@@@@@@@@@@@@@@@@@@@@@@@@@@@",
"@@@@@@@@@@@@@@@@@@@@$@@@@@@@@@+$@@#+$$@@##$O4jjjjdO-jjjjjjjjjjjjjjjjjjjjjjjj4O$O8jjjju+@@@@@@@@@$@@@@@@@@@@@@@@@@@@@@@$@@@@@@@@@@@",
"@#@@@@@@@@@@@@@@@@@@+@@@@@@@@@##@@$$@#@@@#$O3jjjjd@@7yyyyyyyyyyyyyyuuuiiuuiw%@$O8jjjju@@@@@#@@@@@@@@@@@@@@@@@@@@@@@@@@@@@@@@@@@@@@",
"@@@@@@@@@@@@@@@@@@+#$$@@@@@@@@@$@@@+@@@@@@#O4jjjjs@@6reeeeeeeeeeer7@+@@++@++@@$O8jjjji+@@@@@@@@@@@@@@@@@@@@@@@$@@@@@@@@@@@@@@@@@@@",
"@@@@@@@@@@@@@@@@##$@@@@@@@@@@@$+@@@#@@@@@@#O4jjjjsO;jjjjjjjjjjjjjjj:+@@@@@$@@@$O8jhjji+#@@@@@@@@@@@@@@@@@@@@@@@#@@@@@@@@@@@@@$@@@@",
"@@@@@@@@@@@#@@@@##@@@@@@@@@#@@@@@@@@@#@@@@$O4jjjjdO;jhjjjjjjjjjjjjj:+$@@@@@@@@$O8jjjju+#@@@@@@@@@@@@@@@@@@@@@@@@$@@@@@@@@@@@@@@@@@",
"@@@@@@@@@@@@@@@@$+@@@@@@@@@#@@@@@@@@@@@@@@$O4jjjjdO:jjjjjjjjjjjjjjj<O$@@@@@@@@$O8jhjju+#@@@@@@@@@@@@@@@@@@@@@@@@@@@@@@@@@@@@@@@@@@",
"@@@@@@@@@@@@@@@@@$@@@@@@@@+$@@@@@@@@@@@@@@#O4jjjjd+&sjhhhjjhhjjhhjd*@@@@@@@@@@$O8jjjju+#@@@@@@#@@@@@@@@@@@@@@@@@@@@@@@@@@@@@@@@@@@",
"@@@@@@@@@@@@@@@@@@@@@@@@@@$@@@@@@@@@@@@@@@#O4jjjjs@@%===**=*****==$@@@@@@@@@@@$O8jjjji+#@@@@@@@@@@@@@@@@@@@@@@@@@@@@@@@@@@@@@@@@@@",
"@@@@@@@@@@@@$@@@@@@@@@$+@@@@@@@@@@@@@@@@##$O4jjjjs#$#++@@+@++@+@+@@$@@@$###@$@$O7jjjju+###@@@@@@@@@@@@@@@@@@@@@@@@@@@@@@@@@@@@@@@@",
"@@@@@@@@@@@@@@@@@@@@@##$@@@@@@@@@@@@@@@@@#$O4jjjjsOO+++++++++++++++O+++++O+++O@X7jjjju@#@@@@@@@@@@@@@@@@@@@@@@@@@@@@@@@@@@@@@@@@@@",
"@@@@@@@@@@@@@@@@@@@@@@@@@@@@@@##@@@@@@@@@@#O4jjjjhrtttttttttttrrttttttttttttrtteajjjju+#@@@@@@@@@@@@@@@@@@@@@@@@@@@@@@@@@@@@@@@@@@",
"@@@@@@@@@@@@@@@@@@@@@@@@@@@@@@@$@@@@@@@@@@#o4jjjjjjjjjjjjjjjjjjjjjjjjjjjjjjjjjjjjjjjju+#@@@@@@@@@@@@@@@@@@@@@@@@@@@@@@@@@@@@@@$@@@",
"@@@@@@@@@@@@@@@@@@@@@@@@@@@@@@$+@@@@@@@@@@$O5jjjjjjjjjjjjjjjjjjjjjjjjjjjjjjjjjjjjjjjju@@@@@@@@@@@@@@@@$+@@@@+$@@@@@@@@@@@@@@@@@@@@",
"@@@@@@@@@@@@@@@@@@@@@@@@@@@@@@@@@@@@@@@@@@#+,jjjjjjjjjjjjjjjjjjjjjjjjjjjjjjjjjjjjjjjjtO@@@@@@@@@@@@@@#$#@@@@$@@@@@@@@@@@@@@@@@@@@@",
"@@@@@@@@@@@@@@@@@@@@@@@@@@@@@@@@@@@@@@@@@@@@@0jjjjjjjjjjjjjjjjjjjjjjjjjjjjjjjjjjjjjja=@@@@@@@@@@@@@@@@@@@@@@##@@@@@@@@@@@@@@@@@@@@",
"@@@@@@@@@@@@@@@$@@@@@@@@@@@@@@@@@#@@@@@@@@@@@+*-------------------------------------@+@@@@@@@@@@@@@@@@@@@@@@@@@@@@@@@@@@@@@@@@@@%@",
"@@@@@@@@@@@@@@@@@@@@@@@@@$+#@@@@@@@@@@@@@@@@@@@+++++++++++++++++++++@++++++++++++++++#@@@@@@@@@@@@@@@@@@@@@@##@@@@@@@@@@@@@@@@@@@@",
"@@@@@@$@@@@@@@@@@$@@@@@@@@$#@@@@@@@@@@@@@@@@@@@@###$@@$$######$$@@#$##############$$$@@@@@@@@@@@@@#@@@@@@@@@$+@@@@@@@@@@@@@@@@$@@@",
"@@@@@@@@@@@@@@@@@@@@@@@@@@@@@@@@@#@@@@@@@@@@@@@@##@@@@@@@@@@##@@@@@@#@@@##@@@@##@@@@$@$@@@@@@@@@$$+$@@$+$+@@@#@@@@@@@@$@@@@@@@@@@@",
"@@@@@@@@@@@@@@@@@@@@@@@@@@@@@@@@@@@@@@@@@@@@@@@@##@@@@@@@@@@##@@@@@@@@@@@@@@@@@@@@@@@@@@@@@@@@@@#+#$@#$##$@@@@@@@@@@@@@@@@@@@@@@@@",
"@@@@@@@@@@@@@@@@@@@@@@@@@@@@$##@@@@@@@@@@@@@@@@@#@@@@@@@@@@@@@@@@@@@@@@@@@@@@@@@@@@@@@@@@@@@@@@@@@@@#$#+@@@+$$@@+#+####$@@@@@@@@@@",
"@@@@@@@@@@@@@@@@@@@@@@@@@@@@+$@@@@@@#@@@@@@@@@@@+@@@@@@@#+@@@@@@@@@@@@@@@#@@@@@@@@@@@@@@@@@@@@@@@@@@+$$$@@@#+#@@$$$@#$+$@@@@@@@@@@",
"@@@@@@@@@@@@@@@@@@@@@@@$@@@@@@@@@@@@@@@@@@@@@@@@@@@@@@@@@@@@@@+#@@@@@@@@@@@@@@@@@@@@@@@@@@@@@@@@@@@@@@#@@@@@$@@@$#$#+$#+@@@@@@@@@@",
"@@@@@@@@@@@@@@@@@@@@@@@@@@@@@@@@@@@@@@@@@@@@@@@@@$@@@@@@@@@@@@@@@@@@@@@@@@@@@@@@@@@@@@@@@@@@@@@@@@@@@@@@@@@@$#@@@@$+#$@@@@@@@@@@@@",
"@@@@@@@@@@@@@@@@@@@@@@@@@@@@@@@@@@@@@@@@@@@@@@@@@@@@@@#@@@@@@@#@@@@@@@@@@#@@@@@@@@@@@@@#@@@#@@@@@@#$@@@@@@@@@@@@@@@@$#+#@@@@@@@@@@",
"@@@@@@@@@@@@@@@@@@@@@@@@@@@@@@##@@@@@@@@@@@@@@@@@@@@@@##@@@@@@##@@@@@#@@@@@@@@@@@#@@@@@#@@$+##@@@@@$@@@@@#@@@@@#@@@@$+$$@@@@@@@$@@",
"@@@@@@@@@@$@@@@@@@@$$$$@@@@@@#$$###@@##@@@@@@@@@$##@@##$@@$@$$##@@@###@@##@@#######@@@$$+#$#$$#$##$+####$$#$$$##+#@@$$@@@$$@@@@@@@",
"@@@@@@#@++++@@@@@@@+OO+$@@@@$+OOO#@@@++#@@@+@@@++#@@@+++@@+++O+O+##O+#@#++##O++O+O+@@@++$#$+O+O++O+#@++@+##+OO+#$$$+++$@@++@@@@@@@",
"@@@@@@@=<11,%O###@+-54=O@@@#O&35>+@@@>-@#+=<@@$<,@@@@:<@@$,<<<<<%+%<*@#@;-@@<11<21:@@+=<@@@%111<<1-@@:=@@@+*36:@@@@$<&+#@,-+#@@@@@",
"@@@@@@Oejhhjh2+#@$yjghjq@@#+7jhgje@@+giO$o9j&O;jj=+@&jh&O,jjhjhj:O-js@@OppO&fhhjhhp@@@aj1++:hgjjhjrO&jwO$+6jhfjp&@+<ju+#@duO##@@@@",
"@@@@@@+tg*&=pj=+Oej2@@8j5++1j0@+3j8O#duO$O9j&O-jj7O+5jd*O,j5@%%%#+-hjq++ui+#&@4j1$&@O:jhu+@@&@0h&&%+&hqO+1jq$@:hi@O1jj7O#dtO#@@@@@",
"@@@@@$Oeg#+o*j8o*j0X@@Oif@Oug+@@+5,+@fiO$O9j&O-jji@+ujg&O,j5O##@#+-jdj1Xpi+##X2j:O@@Oyd6j=@@#X9j$+@@&jqO+yg@+$X4j:o1jdj;OdrO#@@@@@",
"@@@@@#Otg%@@@heX,j2O#$O9j%+du@###OO#@fuO$O9j&O;jwj**hug&O,jhgghu#+-j5ug@ypO@$+2j<+$@&j5OhwO@$O9h$@#+&hwo@du+@$+-j5X<j2dd@sr+#@@@@@",
"@@@@@#+tg$@@#jqX;j3O%$Oqj%+di+##@*&@+fyO%O8j&O-j2g67s7h&O,je2451#+=j4%jryp+#$O2j:+$+6jptjg%+$O9h%##@%jwO@siO$$+:j4o<j:=j0pyO##@@@@",
"@@@@##Otg+OX1j2O$huOOO@dp@Owj$OO+fyO+aaOOXwj%O-j,0df74j&O-j< XXX@+-j6.6jhu+#$O2j:+@+sdqerj5O$O9h%@#+&h0OOeh%o@X0j=o<j1X9jjeO#@@@@@",
"@@@@##Otj430ja#@+4jt,<pj,++=hd1>uj1+O8jq,6jt++-j<-jj%6j*O,jr2544=+-j6++tju@#$O2j<++<j4X+Odg@$O9j$@#@&jwO@=hf2;qj0++<j2O@ijrO#@@@@@",
"@@@@@$+9ffgfw%@@#+2djjp,+##+,pjjd2+#@#0hjje%@+=f,+ptO5d%+-dfggfg4o=f2+@&se+@@O1d;@O0a$@$O4g:@O6s$@#+%d9O$+=yhjg7@#+-f,++=d9+#@@@@@",
"@@@@@@@@#@#@O@@@##O@*&++#@@#++&&@O#@@@+#*%O@@@@$@@@@@@@@@@$$$@@$@@@$@@@@#@@@@@@%@@@$$@@@@@@@@@@@####@@#@##++%=@O@##@#@##@##@##@@@@",
"@@@@@@@@@@@@##@@#@#@@+##@@@@#@@@##@@@@#@@@@@@@@@@@@@@@@@@@@@+@@@@@@@@@@@@@@@@@@@@@@@@@@@@@@@@@@@@@@@@@@@@@$@@+@$@@@@@@@@#@@@@@@@@@",
"@@@@@@@@#@@@@@@@@@#@@@@@@@@@@@@@#@@@@@@@@$@@@@@@@@@@@@@@@@@#$#@@@@@@@@@@#@@@@@@@@@@@@@@@@@@@@@@@@@@@@@@@@@@@$@@@@@@@@@@@@@@@@@@@@@",
"@@@@@@@@@@@@@@@@@@@@@@@@@@@@@@@@@@@@@@@@@@@@@@@@@@@@@@@@@@@@@@@@@@@@@@@@@@@@@@@@@@@@@@@@@@@@@@@@@@@@@@@@@@@@@@@@@@@@@#@@@@@@@@@@@@",
"k@@@@@@@@@@@@@@@@@@@@@@@@@@@@@@@@@@@@@@@@@@@@@@@@@@@@@@@@@@@@@@@@@@@@@@@@@@@@@@@@@@@@@@@@@@@@@@@@@@@@@@@@@@@@@@@@@@@@@@@@@@@@@@@@@",
"kk@@@@@@@@@@@#@@@@@@@@@@@@@@@@@@@@@@@@@@@@@@@@@@@@@@@@@@@@@@@@@@@@@@@@@@@@@@@@@@@@@@@@@@@@@@@@@@@@@@@#@@@@@@@@@@@@@@@@@@@@@@@@@@@k",
"kkk@@@@@@@@@@@@@@@@@@@@@@@@@@@@@@@@@@@@@@@@@@@@@@@@@@@@@@@@@@@@@@@@@@@@@@@@@@@@@@@@@@@@@@@@@@@@@@@@@@@@@@@@@@@@@@@@@@@@@@@@@@@@kkk"
};
