/* XPM */
static char *new_icon[] = {
/* columns rows colors chars-per-pixel */
"130 80 88 1 ",
"  c #DF0000",
". c #E10003",
"X c #E2010B",
"o c #E20A0E",
"O c #E30613",
"+ c #E30B14",
"@ c #E40D19",
"# c #E31215",
"$ c #E4141C",
"% c #E4191E",
"& c #E51521",
"* c #E51B24",
"= c #E61E29",
"- c #E52226",
"; c #E6242C",
": c #E6292E",
"> c #E62631",
", c #E62B33",
"< c #E82E35",
"1 c #E72E39",
"2 c #E82E39",
"3 c #E73136",
"4 c #E7333A",
"5 c #E8343B",
"6 c #E8393E",
"7 c #E83740",
"8 c #E93B43",
"9 c #E93E49",
"0 c #E94246",
"q c #E9444C",
"w c #EA4B4E",
"e c #EA4751",
"r c #EA4C53",
"t c #EB4F58",
"y c #EB5256",
"u c #EB535A",
"i c #EC5B5E",
"p c #EC605F",
"a c #EC5B62",
"s c #ED6265",
"d c #ED656B",
"f c #EE6B6D",
"g c #EE6D71",
"h c #EF7474",
"j c #EF767A",
"k c #EF7A7B",
"l c #F07777",
"z c #F0757C",
"x c #F07B7C",
"c c #F0807F",
"v c #F07E80",
"b c #F18385",
"n c #F18886",
"m c #F28789",
"M c #F18B8C",
"N c #F39393",
"B c #F39897",
"V c #F3979A",
"C c #F39C9C",
"Z c #F3A19E",
"A c #F4A4A4",
"S c #F5AAA7",
"D c #F5A6AA",
"F c #F5ABAB",
"G c #F6B0AE",
"H c #F6AFB0",
"J c #F6B4B3",
"K c #F7B9B6",
"L c #F7BBBA",
"P c #F8BDBD",
"I c #F7C0BD",
"U c #F7C3C2",
"Y c #F8C4C2",
"T c #F9CAC5",
"R c #F9CDCB",
"E c #F9D0CD",
"W c #FAD4D2",
"Q c #FAD8D6",
"! c #FBDCDB",
"~ c #FCE2DF",
"^ c #FCE5E3",
"/ c #FCEAE7",
"( c #FDECEB",
") c #FDF1EE",
"_ c #FEF4F2",
"` c #FEF8F6",
"' c #FFFFFF",
"] c None",
/* pixels */
"]]]]]]]]]]]]]]]]]]]]]]]]]]]]]]]]]]]]]]]]]]]]]]]]]]]]]]]]]]]]]]]]]]]]]]]]]]]]]]]]]]]]]]]]]]]]]]]]]]]]]]]]]]]]]]]]]]]]]]]]]]]]]]]]]]",
"]]]]]]]]]]]]]]]]]]]]]]]]]]]]]]]]]]]]]]]]]]]]]]]]]]]]]]]]]]]]]]]]]]]]]]]]]]]]]]]]]]]]]]]]]]]]]]]]]]]]]]]]]]]]]]]]]]]]]]]]]]]]]]]]]]",
"]]]]]]]]]]]]]]]]]]]]]]]]]]]]]]]]]]]]]]]]]]]]]]]]]]]]]]]]]]]]]]]]]]]]]]]]]]]]]]]]]]]]]]]]]]]]]]]]]]]]]]]]]]]]]]]]]]]]]]]]]]]]]]]]]]",
"]]]]]]]]]]]]]]]]]]]]]]]]]]]]]]]]]]]]]]]]]]]]]]]]]]]]]]]]]]]]]]]]]]]]]]]]]]]]]]]]]]]]]]]]]]]]]]]]]]]]]]]]]]]]]]]]]]]]]]]]]]]]]]]]]]",
"]]]]]]]]]]]]]]]]]]]]]]]]]]]]]]]]]]]]]]]]]]]]]]]]]]]]]]]]]]]]]]]]]]]]]]]]]]]]]]]]]]]]]]]]]]]]]]]]]]]]]]]]]]]]]]]]]]]]]]]]]]]]]]]]]]",
"]]]]]]]]]]]]]]]]]]]]]]]]]]]]]]]]]]]]]]]]]]]]]]]]]]]]]]]]]]]]]]]]]]]]]]]]]]]]]]]]]]]]]]]]]]]]]]]]]]]]]]]]]]]]]]]]]]]]]]]]]]]]]]]]]]",
"]]]]]]]]]]]]]]]]]]]]]]]]]]]]]]]]]]]]]]]]]]]]]]]]]]]]]]]]]]]]]]]]]]]]]]]]]]]]]]]]]]]]]]]]]]]]]]]]]]]]]]]]]]]]]]]]]]]]]]]]]]]]]]]]]]",
"]]]]]]]]]]]]]]]]]]]]]]]]]]]]]]]]]]]]]]]]]]]]]]]]]]]]]]]]]]]]]]]]]]]]]]]]]]]]]]]]]]]]]]]]]]]]]]]]]]]]]]]]]]]]]]]]]]]]]]]]]]]]]]]]]]",
"]]]]]]]]]]]]]]]]]]]]]]]]]]]]]]]]]]]]]]]]]]]]]]]]]]]]]]]]]]]]]]]]]]]]]]]]]]]]]]]]]]]]]]]]]]]]]]]]]]]]]]]]]]]]]]]]]]]]]]]]]]]]]]]]]]",
"]]]]]]]]]]]]]]]]]]]]]]]]]]]]]]]]]]]]]]]]]]]]]]]]]]]]]]]]]]]]]]]]]]]]]]]]]]]]]]]]]aq9q&XOOOOOOOOOOOOOwq9t]]]]]]]]]]]]]]]]]]]]]]]]]]",
"]]]]]]]]]]]]]]]]]]]]]]]]]]]]]]]]]]]]]]]]]]]]]]]]]]]]]]]]]]]]]]]]]]]]]]]we4=&X.XXXXXX.OOOOOOOOOOOOO.l/h XX.X&6tz]]]]]]]]]]]]]]]]]]]",
"]]]]]]]]]]]]]]]]]]]]]]]]]]]]]]]]]]]]]]]]]]]]]]]]]]]]]]]]]]]]]]]f7;;X...X.XXXOOOOOOOOOOOX.O@OOOOOO.:^'/,.OOOX...XX.X&,24d]]]]]]]]]]",
"]]]]]]]]]]]]]]]]]]]]]]]]]]]]]]]]]]]]]]]]]]]]]]]]]]]]]]]]]]]r<@..XXXXXOOOOOX..OOOOOOOOOX;6.XOOOOOO.C'')w OOOO@OOOOXOXX... X;i]]]]]]",
"]]]]]]]]]]]]]]]]]]]]]]]]]]]]]]]]]]]]]]]]]]]]]]]]]]]]]]]e*@..XXOOOOOX...XOX;b6.OOOOOOOX-E^M+XOOOO.8)''^6.OOOOOOOOOOO=>===$O  *]]]]]",
"]]]]]]]]]]]]]]]]]]]]]]]]]]]]]]]]]]]]]]]]]]]]]]]]]]]2>$O.XXOOOOOXX.+6fMx:X.a'^dXOOOOOOXN'''F%XOOXXS'''LXXOOOOOOOOOOO@O@&>5rq5+]]]]]",
"]]]]]]]]]]]]]]]]]]]]]]]]]]]]]]]]]]]]]]]]]]]]]]]]5&OXXXOOOOOOXXO*iCQ)`''!0.x''`hXOOOO.6)''''NoOO.0(''`d.OOOOOOOOOOOOOOOOOO@&;]]]]]]",
"]]]]]]]]]]]]]]]]]]]]]]]]]]]]]]]]]]]]]]]]]]]]]2OXXOOOOOOOOX.X&yA^''''''''~3n'''/;XOOO.G'''''KoOXXC'''Q%XOOOOOOOOOOOOOOO+OOOX.]]]]]]",
"]]]]]]]]]]]]]]]]]]]]]]]]]]]]]]]]]]]]]]]]]]9+.XOOOOO..OOO.X3xW''''''''''''AN'''`6XOO.q_'''''VXO.6^'''m.OOOOOOOOOOOOOOOOOOOOOX]]]]]]",
"]]]]]]]]]]]]]]]]]]]]]]]]]]]]]]]]]]]]]]]t>..XOOOOOOX4,XOX:M~''''''''''''!AyF'''_3XOO.F''''''lXXXM''')<.OOOOOOOOOOOOOOOOOOOOOOX;e]]]",
"]]]]]]]]]]]]]]]]]]]]]]]]]]]]]]]]]]]]e4X.XOOO+OOOOXoIQ:.:R'''''''''''`Kf:.XU'''(;XO.0)''''''i.X:^'''A.OOOOOOOOOOOOOOOOOOOOOOOO..8]]",
"]]]]]]]]]]]]]]]]]]]]]]]]]]]]]]]]]&>$XXXOOOOOOOOOO.6)'A.6)'''''''''~M0#...&E'''^*XXXA''''''`q.Xl''''qXOOOOOOOOOOOOOOOOOOOOOOOOOXO]]",
"]]]]]]]]]]]]]]]]]]]]]]]]]]]]]]]>@OXXXXO.XXO+OOOOO.x''/:.Z'''''''Qk;O.XOOO=!'''W$O.4/'''''')4.$E'''YoOOOOOOOOOOOOOOOXXOOOOOOOOOOXO=",
"]]]]]]]]]]]]]]]]]]]]]]]]]]]]>@XXOOOX$NUCy@XXOOOOXXH''_i 9/''''(h@.XOOOOOX=^'''R+X.m'''''''~;.u''''fXOOO@OOOOOOOOOO@qe,&OXXXOOOOOX.",
"]]]]]]]]]]]]]]]]]]]]]]]]]a+XXOOOOOO u_'''Rs+XOOO.;Q''`p 3^''''A.X+OOOOOOX>('''I+.;W'''`'''W*.J'''^>XOOOOOOOO+OOOOOO;e]]]u>$XXX.X&4",
"]]]]]]]]]]]]]]]]]]]]]]]2X.OOOOOOO+O.b''''''bXOOO.y_'')r d`''''h.OOOOOO+OX4)'''JX.a''')R'''I$>)'''BoOOOOOOOO++OOOOOOX.X+6a]]f>=u]]]",
"]]]]]]]]]]]]]]]]]]]]e*.XOOOOOOOOOOXXA''''''R*XOO.n'''^:.N''''/0.OOOOOOOOX5`'''S.+K'''KS'''Kov'''`r.OOOOOOOOOOOOOOOOOOO+O$=]]]]]]]]",
"]]]]]]]]]]]]]]]]]]5&.XOOOOOOOOOOOOX$P''''''Q-XOX+J'''EooL''''E&XOOOOOOOOX6`'''Z.6`'''dS'''S#R'''T&XOOOOOOOOOOOOOOOOOOX;]]]]]]]]]]]",
"]]]]]]]]]]]]]]]]5#XXOOOOOOOOOOOOOO.:!''''''^:.O.:Q'''F :!''''S.OOOOOOOOOX0''''BXb'''):J'''Br)'''n.X+OOOOOOOOOOOOOOOOOOO]]]]]]]]]]]",
"]]]]]]]]]]]]]]<oXOOOOOOOOOOOOOOOOO q)''''''/,XO.r`'''c w_''''h.OOOOOOOOOX0`'''m#E'''HoK'''CB''')0.OOOOOOOOOOOOOOOOOOOXX]]]]]]]]]]]",
"]]]]]]]]]]]]>XXOOOOOO+OOOOOOOOOOOO.d''''''')6XO.l'''`i g''''(0 XoOXOOOOOXq''''z9''''f.G'''PW'''U#XOOOOOOOOOOOOOOOOOOXo]]]]]]]]]]]]",
"]]]]]]]]]]fXXOOOOOOOOOOOOOOOOOOOOOXn'''''''`0 XoA'''_,.N''''W$-gSC,.OOOOXq''''hn'''/4.S''')`'''n.OOOOOOOOOOOOOOOOOOO#]]]]]]]]]]]]]",
"]]]]]]]]]-.OOOOOOOOOOOOOOOOO+OOOOXXA''''''''tXX*R'''!+#L''''EN~'''W5XOOOX0''''bE'''J+ C'''''''(q.OOOOOOOOOOOOOOOOOO.]]]]]]]]]]]]]]",
"]]]]]]]]%.OOOOOOOOOOOOOOOOOOOOOOOX%U''''''''s X4_'''K.;Q'''''''''''EOXOOXq''''K`'''l..n'''''''R#XOOOOOOOOOOOOOOO+O.=]]]]]]]]]]]]]]",
"]]]]]]]+X+OOOOOOOOOOOOOOOOOOOOO+OX>!''''''''hXXi''''M.8_''''''''''/cOOOOX0`'''_''')q.Xh'''''''N.OOOOOOOOOOX.X...X.O]]]]]]]]]]]]]]]",
"]]]]]]=XOOOOOOOOOOOOOOOOO+OOOOOOOX9_''''''''bXXb''''s.i''''''''')N,XOOOOX6`'''''''Y$XXy''''''_y.OOOOOOXO@@;wyd]]]y]]]]]]]]]]]]]]]]",
"]]]]]]XXOOOXOOOXOOOOOOOOOOOOOOOOO i'''''''''NXoG''''8.x''''''''J6XXOOOOOX5)'''''''N.XX;/'''''^&XOOOOO&:ee9ettttr]]]]]]]]]]]]]]]]]]",
"]]]]]]e+OX.XOX$*@OOOOOOOOOOOOOOOO j''''``'''So$Q'''/*oC''''''QpXXOOOOOOOX:)''''''`i.OOXg/`'''H.OOOOO@&&@O.....#:]]]]]]]]]]]]]]]]]]",
"]]]]]]]]]5tq2]]],XOOOOOOOOOOOOOOXON''''E^'''Po3_'''YO+I'''')B*.OOOOOOOOOX=^''''''!:.OOOX3hCJF8XXOOOX...X@$,2u]]]]]]]]]]]]]]]]]]]]]",
"]]]]]]]]]]]]]]]]@O+OOOOOOOOOOOOOO+J''''ZT'''W#y''''CX-!''''h.XOOOOOOOOOOX$E''''''KXXOOXOX..X..XOX..X$7a]]]]]]]]]]]]]]]]]]]]]]]]]]]",
"]]]]]]]]]]]]]i+.OOOOOOOOOOOOO+OOO&W''''gG'''^%k''''k.3_''')*XOOO+O+OOOOOOOA''''''b.OX@&>*OX X<]]&;a]]]]]]]]]]]]]]]]]]]]]]]]]]]]]]]",
"]]]]]]]]]]]]q.XOOOOOOOOOOOOOOOOOX,(''''0C'''_,A''''u r''''R$OOOX...OOOOOOXw)'''')q.&,,=&O.&u]]]]]]]]]]]]]]]]]]]]]]]]]]]]]]]]]]]]]]",
"]]]]]]]]]]]]&XOOOOOOOOOOOOOOOOOOX8''''(;M''''wU'''_6 f''''SOOO $insXXOOOOOXqG)''E:,,&@X@<]]]]]]]]]]]]]]]]]]]]]]]]]]]]]]]]]]]]]]]]]",
"]]]]]]]]]]]]]XOOOOOOOOOOOOOOOOOO a''''W+h''''k~'''!-.n''''v  &hQ`'`A$XOOOOXXX,ylwO@XO&e]]]]]]]]]]]]]]]]]]]]]]]]]]]]]]]]]]]]]]]]]]]",
"]]]]]]]]]]]]]7XOOOOOOO+OOOOOOOOOXx''''K i''''J)'''P$.S''''w#fQ''''''C.OOOOOOOX. X$*q]]]]]]]]]]]]]]]]]]]]]]]]]]]]]]]]]]]]]]]]]]]]]]",
"]]]]]]]]]]]]]].OOOOOOOOOOOOOOOOOoB''''M 0''''(''''CXoU'''`hG''''''')nXXOOOOO.X@49]]]]]]]]]]]]]]]]]]]]]]]]]]]]]]]]]]]]]]]]]]]]]]]]]",
"]]]]]]]]]]]]]5XOOOOOOOOOOOOOOOOOOJ''''g >/''''''''v $Q'''``'''''''IyXOOOOX.X4t]]]]]]]]]]]]]]]]]]]]]]]]]]]]]]]]]]]]]]]]]]]]]]]]]]]]",
"]]]]]]]]]]]]].OOOOOOO+OOOOOOOOOO@W''''r %W''''''''a ;(''''''''''/x$ OOOX.*a]]]]]]]]]]]]]]]]]]]]]]]]]]]]]]]]]]]]]]]]]]]]]]]]]]]]]]]",
"]]]]]]]]]]]]].OOOOOXX X+OOOOOOOX*/'''_4 #J'''''''_q 6`'''''''''K6.XOO.X4]]]]]]]]]]]]]]]]]]]]]]]]]]]]]]]]]]]]]]]]]]]]]]]]]]]]]]]]]]",
"]]]]]]]]]]]]]4.XXXO*8]t.OOOOOOOX4`'''!*XXN'''''''!,.w'''''''')h+.XOX+e]]]y]]]]]]]]]]]]]]]]]]]]]]]]]]]]]]]]]]]]]]]]]]]]]]]]]]]]]]]]",
"]]]]]]]]]]]]]]]]]]]]]]9XOOOOOOOXw''''I$XXh'''''''U* s'''''''R6XXXX&i]]]4]]]]]]]]]]]]]]]]]]]]]]]]]]]]]]]]]]]]]]]]]]]]]]]]]]]]]]]]]]",
"]]]]]]]]]]]]]]]]]]]]]O.OOOOOOOOXd''''AoX.t'''''''Ho w'''''`C$ X ;a]]ey]]]]]]]]]]]]]]]]]]]]]]]]]]]]]]]]]]]]]]]]]]]]]]]]]]]]]]]]]]]]",
"]]]]]]]]]]]]]]]]]]]] OOOOOOOOO+ c''''nXO 3^''''''VXXON(''_xXX.&t]]t]]]]]]]]]]]]]]]]]]]]]]]]]]]]]]]]]]]]]]]]]]]]]]]]]]]]]]]]]]]]]]]",
"]]]]]]]]]]]]]]]]]]]2.OOO+OOOOOO.B''''g OX%U''''''x OXXwBJa.XO0]]]]]]]]]]]]]]]]]]]]]]]]]]]]]]]]]]]]]]]]]]]]]]]]]]]]]]]]]]]]]]]]]]]]",
"]]]]]]]]]]]]]]]]]]]]XOOOOOOOOOOXH''''yXOO.N''''''s OOX X+.OX&]]]]]]]]]]]]]]]]]]]]]]]]]]]]]]]]]]]]]]]]]]]]]]]]]]]]]]]]]]]]]]]]]]]]]",
"]]]]]]]]]]]]]]]]]]]]OOOOOOOX OOOU''')8 OO.,Q'''')w OOOOOXOX.,]]]]]]]]]]]]]]]]]]]]]]]]]]]]]]]]]]]]]]]]]]]]]]]]]]]]]]]]]]]]]]]]]]]]]",
"]]]]]]]]]]]]]]]]]]]]$.OXXXX1]e.OW'''!,XOOOX,nY~)A$XOOOOOXX*]]]]]]]]]]]]]]]]]]]]]]]]]]]]]]]]]]]]]]]]]]]]]]]]]]]]]]]]]]]]]]]]]]]]]]]",
"]]]]]]]]]]]]]]]]]]]]]5&;9q]]]8 &^'''T*XOOOOXXO->@XOOOOXX,]]]]]]]]]]]]]]]]]]]]]]]]]]]]]]]]]]]]]]]]]]]]]]]]]]]]]]]]]]]]]]]]]]]]]]]]]",
"]]]]]]]]]]]]]]]]]]]]]]]]]]]]5.X:('''G#XOOOOOOOXXOOOOX.*]]]]]]]]]]]]]]]]]]]]]]]]]]]]]]]]]]]]]]]]]]]]]]]]]]]]]]]]]]]]]]]]]]]]]]]]]]]",
"]]]]]]]]]]]]]]]]]]]]]]]]]]]q O.4)'''CXXOOOOOOOOOOOO $e]]]]]]]]]]]]]]]]]]]]]]]]]]]]]]]]]]]]]]]]]]]]]]]]]]]]]]]]]]]]]]]]]]]]]]]]]]]]",
"]]]]]]]]]]]]]]]]]]]]]]]]]]a.OO.9_'''nXO+OOOOOOOOO. q]]]]]]]]]]]]]]]]]]]]]]]]]]]]]]]]]]]]]]]]]]]]]]]]]]]]]]]]]]]]]]]]]]]]]]]]]]]]]]",
"]]]]]]]]]]]]]]]]]]]]]]]]]]XOOO 6_'''g XOOOOOOOOO &]]]]]]]]]]]]]]]]]]]]]]]]]]]]]]]]]]]]]]]]]]]]]]]]]]]]]]]]]]]]]]]]]]]]]]]]]]]]]]]]",
"]]]]]]]]]]]]]]]]]]]]]]]]]$XOOOO@U'''a OOOOOOOOX.t]]]]]]]]]]]]]]]]]]]]]]]]]]]]]]]]]]]]]]]]]]]]]]]]]]]]]]]]]]]]]]]]]]]]]]]]]]]]]]]]]",
"]]]]]]]]]]]]]]]]]]]]]]]]t.OOOOOX4R')q.OOOOOOoX@]]]]]]]]]]]]]]]]]]]]]]]]]]]]]]]]]]]]]]]]]]]]]]]]]]]]]]]]]]]]]]]]]]]]]]]]]]]]]]]]]]]",
"]]]]]]]]]]]]]]]]]]]]]]]]oXOOOOOOX$gh$XOOOOOXO1]]]]]]]]]]]]]]]]]]]]]]]]]]]]]]]]]]]]]]]]]]]]]]]]]]]]]]]]]]]]]]]]]]]]]]]]]]]]]]]]]]]]",
"]]]]]]]]]]]]]]]]]]]]]]]t OOOOOOXOO  OOOOOO.#]]]]]]]]]]]]]]]]]]]]]]]]]]]]]]]]]]]]]]]]]]]]]]]]]]]]]]]]]]]]]]]]]]]]]]]]]]]]]]]]]]]]]]",
"]]]]]]]]]]]]]]]]]]]]]]]:XOOOOOXXOOOOOOOOX.*]]]]]]]]]]]]]]]]]]]]]]]]]]]]]]]]]]]]]]]]]]]]]]]]]]]]]]]]]]]]]]]]]]]]]]]]]]]]]]]]]]]]]]]",
"]]]]]]]]]]]]]]]]]]]]]]]+XOOOO.*]uXOOOOOX.0]]]]]]]]]]]]]]]]]]]]]]]]]]]]]]]]]]]]]]]]]]]]]]]]]]]]]]]]]]]]]]]]]]]]]]]]]]]]]]]]]]]]]]]]",
"]]]]]]]]]]]]]]]]]]]]]]]q OOX y]]qXOOOO.>]]]]]]]]]]]]]]]]]]]]]]]]]]]]]]]]]]]]]]]]]]]]]]]]]]]]]]]]]]]]]]]]]]]]]]]]]]]]]]]]]]]]]]]]]]",
"]]]]]]]]]]]]]]]]]]]]]]]]]XX*]]]]XOOOXX]]]]]]]]]]]]]]]]]]]]]]]]]]]]]]]]]]]]]]]]]]]]]]]]]]]]]]]]]]]]]]]]]]]]]]]]]]]]]]]]]]]]]]]]]]]]",
"]]]]]]]]]]]]]]]]]]]]]]]]]]:=]]]8 OOX@]]]]]]]]]]]]]]]]]]]]]]]]]]]]]]]]]]]]]]]]]]]]]]]]]]]]]]]]]]]]]]]]]]]]]]]]]]]]]]]]]]]]]]]]]]]]]",
"]]]]]]]]]]]]]]]]]]]]]]]]]]]&t]]io..>]]]]]]]]]]]]]]]]]]]]]]]]]]]]]]]]]]]]]]]]]]]]]]]]]]]]]]]]]]]]]]]]]]]]]]]]]]]]]]]]]]]]]]]]]]]]]]",
"]]]]]]]]]]]]]]]]]]]]]]]]]]]]];-8ee-]]]]]]]]]]]]]]]]]]]]]]]]]]]]]]]]]]]]]]]]]]]]]]]]]]]]]]]]]]]]]]]]]]]]]]]]]]]]]]]]]]]]]]]]]]]]]]]",
"]]]]]]]]]]]]]]]]]]]]]]]]]]]]]]6 ;]]]]]]]]]]]]]]]]]]]]]]]]]]]]]]]]]]]]]]]]]]]]]]]]]]]]]]]]]]]]]]]]]]]]]]]]]]]]]]]]]]]]]]]]]]]]]]]]]",
"]]]]]]]]]]]]]]]]]]]]]]]]]]]]]]]]#]]]]]]]]]]]]]]]]]]]]]]]]]]]]]]]]]]]]]]]]]]]]]]]]]]]]]]]]]]]]]]]]]]]]]]]]]]]]]]]]]]]]]]]]]]]]]]]]]",
"]]]]]]]]]]]]]]]]]]]]]]]]]]]]]]]]]]]]]]]]]]]]]]]]]]]]]]]]]]]]]]]]]]]]]]]]]]]]]]]]]]]]]]]]]]]]]]]]]]]]]]]]]]]]]]]]]]]]]]]]]]]]]]]]]]",
"]]]]]]]]]]]]]]]]]]]]]]]]]]]]]]]]]]]]]]]]]]]]]]]]]]]]]]]]]]]]]]]]]]]]]]]]]]]]]]]]]]]]]]]]]]]]]]]]]]]]]]]]]]]]]]]]]]]]]]]]]]]]]]]]]]",
"]]]]]]]]]]]]]]]]]]]]]]]]]]]]]]]]]]]]]]]]]]]]]]]]]]]]]]]]]]]]]]]]]]]]]]]]]]]]]]]]]]]]]]]]]]]]]]]]]]]]]]]]]]]]]]]]]]]]]]]]]]]]]]]]]]",
"]]]]]]]]]]]]]]]]]]]]]]]]]]]]]]]]]]]]]]]]]]]]]]]]]]]]]]]]]]]]]]]]]]]]]]]]]]]]]]]]]]]]]]]]]]]]]]]]]]]]]]]]]]]]]]]]]]]]]]]]]]]]]]]]]]",
"]]]]]]]]]]]]]]]]]]]]]]]]]]]]]]]]]]]]]]]]]]]]]]]]]]]]]]]]]]]]]]]]]]]]]]]]]]]]]]]]]]]]]]]]]]]]]]]]]]]]]]]]]]]]]]]]]]]]]]]]]]]]]]]]]]",
"]]]]]]]]]]]]]]]]]]]]]]]]]]]]]]]]]]]]]]]]]]]]]]]]]]]]]]]]]]]]]]]]]]]]]]]]]]]]]]]]]]]]]]]]]]]]]]]]]]]]]]]]]]]]]]]]]]]]]]]]]]]]]]]]]]"
};
